<svg width="512" height="512" viewBox="0 0 512 512" fill="none" xmlns="http://www.w3.org/2000/svg">
<g clip-path="url(#clip0_89_2)">
<path d="M216.975 0C225.415 0.0936622 223.321 9.98802 221.001 16.5939C216.897 28.2757 212.261 39.4782 207.686 50.846L183.436 111.114L120.495 271.368L101.397 319.692C97.2944 329.927 90.7061 345.39 87.6062 355.742C116.042 320.132 142.163 280.189 170.289 244.055C184.161 226.232 207.543 192.328 226.3 185.647C240.38 180.631 266.77 181.446 282.374 181.007C307.831 180.492 333.294 180.69 358.738 181.601C369.032 181.922 380.025 181.479 390.152 183.61C398.029 185.34 402.737 196.676 405.62 205.507C413.987 231.117 422.104 256.691 430.818 282.112C450.192 339.058 470.792 395.269 492.593 450.675C495.937 459.228 512.159 495.857 511.937 503.524C511.877 505.547 511.273 507.459 510.047 508.741C504.419 514.637 490.231 507.923 483.813 506.837L483.353 506.766C422.672 487.939 361.902 469.617 301.042 451.812C253.551 437.68 205.999 423.883 158.391 410.416L104.526 395.13C68.4585 385.221 74.3807 383.145 52.4365 420.94L27.1953 463.873C23.5646 470.02 8.32965 498.179 2.92555 498.581C1.89676 498.069 0.772844 497.959 0.34877 496.503C-2.76869 485.822 15.966 284.002 18.6594 258.166C20.4903 240.599 22.8367 222.735 25.426 205.343C27.806 189.356 30.5646 171.162 36.2917 156.617C39.3075 148.958 44.0578 144.077 49.3279 139.156C57.8925 131.159 67.4029 124.359 76.3228 117.005L137.943 66.0893C149.879 56.0989 161.7 45.8756 173.405 35.4233C184.279 25.7658 206.035 4.50209 216.975 0Z" fill="#FEFEFE"/>
</g>
<defs>
<clipPath id="clip0_89_2">
<rect width="512" height="512" fill="white"/>
</clipPath>
</defs>
</svg>
